<svg xmlns="http://www.w3.org/2000/svg" version="1.0" width="1900.000000pt" height="576.000000pt" viewBox="0 0 1900.000000 576.000000" preserveAspectRatio="xMidYMid meet">
<metadata fill="#ffffff">
Created by potrace 1.16, written by Peter Selinger 2001-2019
</metadata>
<g transform="translate(0.000000,576.000000) scale(0.100000,-0.100000)" fill="#ffffff" stroke="none">
<path d="M8815 5146 c-305 -50 -572 -179 -799 -385 -395 -360 -575 -809 -536 -1332 17 -218 67 -405 154 -581 216 -431 630 -758 1088 -857 277 -60 612 -43 883 45 116 38 286 124 395 202 122 86 316 280 402 402 189 266 278 561 279 912 0 279 -42 478 -146 695 -214 447 -627 777 -1108 884 -118 27 -487 36 -612 15z m443 -802 c160 -33 314 -114 430 -227 150 -147 210 -328 199 -604 -9 -235 -63 -370 -202 -508 -229 -227 -564 -306 -868 -205 -218 73 -386 211 -468 385 -57 119 -72 204 -72 380 0 130 4 174 21 236 25 93 70 185 126 257 73 95 244 210 381 257 133 45 316 57 453 29z" fill="#ffffff"/>
<path d="M16455 5146 c-305 -50 -572 -179 -799 -385 -395 -360 -575 -809 -536 -1332 17 -218 67 -405 154 -581 216 -431 630 -758 1088 -857 277 -60 612 -43 883 45 116 38 286 124 395 202 122 86 316 280 402 402 189 267 278 559 278 912 0 282 -41 478 -145 695 -214 447 -627 777 -1108 884 -118 27 -487 36 -612 15z m443 -802 c160 -33 314 -114 430 -227 150 -147 210 -328 199 -604 -9 -235 -63 -370 -202 -508 -229 -227 -564 -306 -868 -205 -218 73 -386 211 -468 385 -57 119 -72 204 -72 380 0 130 4 174 21 236 25 93 70 185 126 257 73 95 244 210 381 257 133 45 316 57 453 29z" fill="#ffffff"/>
<path d="M2650 5025 c-244 -36 -425 -92 -645 -199 -254 -124 -429 -251 -626 -452 -324 -333 -526 -733 -605 -1205 -16 -93 -18 -208 -21 -1112 l-4 -1007 395 0 396 0 0 355 0 355 565 0 565 0 0 -355 0 -355 395 0 395 0 0 1995 0 1995 -362 -1 c-234 -1 -393 -6 -448 -14z m20 -1640 l0 -835 -566 0 -567 0 6 223 c6 245 19 343 68 488 155 462 529 823 974 940 38 10 73 18 78 18 4 1 7 -375 7 -834z" fill="#ffffff"/>
<path d="M3560 3046 l0 -1996 400 0 400 0 2 620 3 620 493 -620 493 -620 815 0 814 0 0 1600 0 1600 265 0 265 0 0 395 0 395 -925 0 -925 0 0 -395 0 -395 260 0 260 0 0 -1477 c0 -812 -2 -1474 -4 -1472 -2 2 -232 289 -510 638 l-505 633 45 59 c178 232 270 502 281 829 13 380 -90 701 -322 1009 -221 293 -485 463 -840 542 -89 20 -136 22 -432 26 l-333 5 0 -1996z m923 985 c106 -100 186 -261 208 -416 29 -214 -72 -473 -248 -634 -36 -34 -70 -61 -74 -61 -5 0 -9 273 -9 606 l0 605 33 -22 c17 -13 58 -48 90 -78z" fill="#ffffff"/>
<path d="M10800 3040 l0 -2000 865 0 865 0 0 395 0 395 -470 0 -470 0 0 1605 0 1605 -395 0 -395 0 0 -2000z" fill="#ffffff"/>
<path d="M12670 3040 l0 -2000 173 0 c233 1 461 15 582 35 381 65 721 239 1014 520 424 407 621 867 621 1450 0 332 -62 609 -196 878 -256 516 -744 919 -1278 1057 -191 49 -305 60 -626 60 l-290 0 0 -2000z m915 1081 c237 -115 433 -306 551 -536 266 -518 110 -1161 -367 -1515 -74 -55 -227 -137 -286 -155 l-23 -6 0 1130 c0 898 3 1131 13 1131 6 0 57 -22 112 -49z" fill="#ffffff"/>
<path d="M7560 1445 l0 -395 1248 0 c687 0 1371 -3 1520 -7 l272 -6 0 401 0 402 -1520 0 -1520 0 0 -395z" fill="#ffffff"/>
<path d="M15200 1440 l0 -400 1520 0 1520 0 0 400 0 400 -1520 0 -1520 0 0 -400z" fill="#ffffff"/>
</g>
</svg>